HIERARCHY
ROOT Hips
{
	OFFSET -395.419647 -566.670227 89.000702
	CHANNELS 6 Xposition Yposition Zposition Zrotation Yrotation Xrotation
	JOINT Spine
	{
		OFFSET 0.000000 2.080078 8.814247
		CHANNELS 6 Xposition Yposition Zposition Zrotation Yrotation Xrotation
		JOINT Spine1
		{
			OFFSET 0.000000 0.000000 8.844139
			CHANNELS 6 Xposition Yposition Zposition Zrotation Yrotation Xrotation
			JOINT Spine2
			{
				OFFSET 0.000000 0.000000 11.682266
				CHANNELS 6 Xposition Yposition Zposition Zrotation Yrotation Xrotation
				JOINT Spine3
				{
					OFFSET 0.000000 0.000000 11.746704
					CHANNELS 6 Xposition Yposition Zposition Zrotation Yrotation Xrotation
					JOINT Neck
					{
						OFFSET 0.000000 0.000000 17.658264
						CHANNELS 6 Xposition Yposition Zposition Zrotation Yrotation Xrotation
						JOINT Neck1
						{
							OFFSET 0.000000 0.000000 5.101517
							CHANNELS 6 Xposition Yposition Zposition Zrotation Yrotation Xrotation
							JOINT Head
							{
								OFFSET 0.000000 0.000000 5.101517
								CHANNELS 6 Xposition Yposition Zposition Zrotation Yrotation Xrotation
								JOINT HeadEnd
								{
									OFFSET 0.000000 0.000000 11.655090
									CHANNELS 6 Xposition Yposition Zposition Zrotation Yrotation Xrotation
									End Site
									{
										OFFSET 0.000000 0.000000 0.100006
									}
								}
							}
						}
					}
					JOINT RightShoulder
					{
						OFFSET -2.625397 0.000000 11.175217
						CHANNELS 6 Xposition Yposition Zposition Zrotation Yrotation Xrotation
						JOINT RightArm
						{
							OFFSET 0.000000 0.000000 10.434708
							CHANNELS 6 Xposition Yposition Zposition Zrotation Yrotation Xrotation
							JOINT RightForeArm
							{
								OFFSET 0.000000 0.000000 29.628418
								CHANNELS 6 Xposition Yposition Zposition Zrotation Yrotation Xrotation
								JOINT RightHand
								{
									OFFSET 0.000000 0.000000 22.857605
									CHANNELS 6 Xposition Yposition Zposition Zrotation Yrotation Xrotation
									JOINT RightHandThumb1
									{
										OFFSET -2.867310 -2.944275 3.959564
										CHANNELS 6 Xposition Yposition Zposition Zrotation Yrotation Xrotation
										JOINT RightHandThumb2
										{
											OFFSET 0.000000 0.000000 3.350403
											CHANNELS 6 Xposition Yposition Zposition Zrotation Yrotation Xrotation
											JOINT RightHandThumb3
											{
												OFFSET 0.000000 0.000000 3.756516
												CHANNELS 6 Xposition Yposition Zposition Zrotation Yrotation Xrotation
												JOINT RightHandThumb4
												{
													OFFSET 0.000000 0.000000 3.147339
													CHANNELS 6 Xposition Yposition Zposition Zrotation Yrotation Xrotation
													End Site
													{
														OFFSET 0.000000 0.000000 0.100006
													}
												}
											}
										}
									}
									JOINT RightHandIndex1
									{
										OFFSET -0.086761 -2.345276 10.030899
										CHANNELS 6 Xposition Yposition Zposition Zrotation Yrotation Xrotation
										JOINT RightHandIndex2
										{
											OFFSET 0.000000 0.000000 4.061096
											CHANNELS 6 Xposition Yposition Zposition Zrotation Yrotation Xrotation
											JOINT RightHandIndex3
											{
												OFFSET 0.000000 0.000000 3.248871
												CHANNELS 6 Xposition Yposition Zposition Zrotation Yrotation Xrotation
												JOINT RightHandIndex4
												{
													OFFSET 0.000000 0.000000 2.639709
													CHANNELS 6 Xposition Yposition Zposition Zrotation Yrotation Xrotation
													End Site
													{
														OFFSET 0.000000 0.000000 0.100006
													}
												}
											}
										}
									}
									JOINT RightHandMiddle1
									{
										OFFSET 0.104095 -0.006775 9.502945
										CHANNELS 6 Xposition Yposition Zposition Zrotation Yrotation Xrotation
										JOINT RightHandMiddle2
										{
											OFFSET 0.000000 0.000000 4.568726
											CHANNELS 6 Xposition Yposition Zposition Zrotation Yrotation Xrotation
											JOINT RightHandMiddle3
											{
												OFFSET 0.000000 0.000000 3.654984
												CHANNELS 6 Xposition Yposition Zposition Zrotation Yrotation Xrotation
												JOINT RightHandMiddle4
												{
													OFFSET 0.000000 0.000000 2.741241
													CHANNELS 6 Xposition Yposition Zposition Zrotation Yrotation Xrotation
													End Site
													{
														OFFSET 0.000000 0.000000 0.100006
													}
												}
											}
										}
									}
									JOINT RightHandRing1
									{
										OFFSET 0.086761 2.267456 8.921707
										CHANNELS 6 Xposition Yposition Zposition Zrotation Yrotation Xrotation
										JOINT RightHandRing2
										{
											OFFSET 0.000000 0.000000 4.061096
											CHANNELS 6 Xposition Yposition Zposition Zrotation Yrotation Xrotation
											JOINT RightHandRing3
											{
												OFFSET 0.000000 0.000000 3.654984
												CHANNELS 6 Xposition Yposition Zposition Zrotation Yrotation Xrotation
												JOINT RightHandRing4
												{
													OFFSET 0.000000 0.000000 2.741241
													CHANNELS 6 Xposition Yposition Zposition Zrotation Yrotation Xrotation
													End Site
													{
														OFFSET 0.000000 0.000000 0.100006
													}
												}
											}
										}
									}
									JOINT RightHandPinky1
									{
										OFFSET -0.173492 4.467224 7.976990
										CHANNELS 6 Xposition Yposition Zposition Zrotation Yrotation Xrotation
										JOINT RightHandPinky2
										{
											OFFSET 0.000000 0.000000 3.350403
											CHANNELS 6 Xposition Yposition Zposition Zrotation Yrotation Xrotation
											JOINT RightHandPinky3
											{
												OFFSET 0.000000 0.000000 2.842758
												CHANNELS 6 Xposition Yposition Zposition Zrotation Yrotation Xrotation
												JOINT RightHandPinky4
												{
													OFFSET 0.000000 0.000000 2.639709
													CHANNELS 6 Xposition Yposition Zposition Zrotation Yrotation Xrotation
													End Site
													{
														OFFSET 0.000000 0.000000 0.100006
													}
												}
											}
										}
									}
									JOINT RightForeArmEnd
									{
										OFFSET 0.000000 0.000000 0.000000
										CHANNELS 6 Xposition Yposition Zposition Zrotation Yrotation Xrotation
										End Site
										{
											OFFSET 0.000000 0.000000 0.100006
										}
									}
								}
								JOINT RightArmEnd
								{
									OFFSET 0.000000 0.000000 0.000000
									CHANNELS 6 Xposition Yposition Zposition Zrotation Yrotation Xrotation
									End Site
									{
										OFFSET 0.000000 0.000000 0.100006
									}
								}
							}
						}
					}
					JOINT LeftShoulder
					{
						OFFSET 2.625397 0.000000 11.175217
						CHANNELS 6 Xposition Yposition Zposition Zrotation Yrotation Xrotation
						JOINT LeftArm
						{
							OFFSET 0.000000 0.000000 10.813629
							CHANNELS 6 Xposition Yposition Zposition Zrotation Yrotation Xrotation
							JOINT LeftForeArm
							{
								OFFSET 0.000000 0.000000 28.724777
								CHANNELS 6 Xposition Yposition Zposition Zrotation Yrotation Xrotation
								JOINT LeftHand
								{
									OFFSET 0.644379 0.328857 25.716171
									CHANNELS 6 Xposition Yposition Zposition Zrotation Yrotation Xrotation
									JOINT LeftHandThumb1
									{
										OFFSET 2.867310 -2.944275 3.959564
										CHANNELS 6 Xposition Yposition Zposition Zrotation Yrotation Xrotation
										JOINT LeftHandThumb2
										{
											OFFSET 0.000000 0.000000 3.350403
											CHANNELS 6 Xposition Yposition Zposition Zrotation Yrotation Xrotation
											JOINT LeftHandThumb3
											{
												OFFSET 0.000000 0.000000 3.756516
												CHANNELS 6 Xposition Yposition Zposition Zrotation Yrotation Xrotation
												JOINT LeftHandThumb4
												{
													OFFSET 0.000000 0.000000 3.100006
													CHANNELS 6 Xposition Yposition Zposition Zrotation Yrotation Xrotation
													End Site
													{
														OFFSET 0.000000 0.000000 0.100006
													}
												}
											}
										}
									}
									JOINT LeftHandIndex1
									{
										OFFSET 0.086761 -2.345276 10.030899
										CHANNELS 6 Xposition Yposition Zposition Zrotation Yrotation Xrotation
										JOINT LeftHandIndex2
										{
											OFFSET 0.000000 0.000000 4.061096
											CHANNELS 6 Xposition Yposition Zposition Zrotation Yrotation Xrotation
											JOINT LeftHandIndex3
											{
												OFFSET 0.000000 0.000000 3.248871
												CHANNELS 6 Xposition Yposition Zposition Zrotation Yrotation Xrotation
												JOINT LeftHandIndex4
												{
													OFFSET 0.000000 0.000000 2.639709
													CHANNELS 6 Xposition Yposition Zposition Zrotation Yrotation Xrotation
													End Site
													{
														OFFSET 0.000000 0.000000 0.100006
													}
												}
											}
										}
									}
									JOINT LeftHandMiddle1
									{
										OFFSET -0.104095 -0.006775 9.502945
										CHANNELS 6 Xposition Yposition Zposition Zrotation Yrotation Xrotation
										JOINT LeftHandMiddle2
										{
											OFFSET 0.000000 0.000000 4.568726
											CHANNELS 6 Xposition Yposition Zposition Zrotation Yrotation Xrotation
											JOINT LeftHandMiddle3
											{
												OFFSET 0.000000 0.000000 3.654984
												CHANNELS 6 Xposition Yposition Zposition Zrotation Yrotation Xrotation
												JOINT LeftHandMiddle4
												{
													OFFSET 0.000000 0.000000 2.741241
													CHANNELS 6 Xposition Yposition Zposition Zrotation Yrotation Xrotation
													End Site
													{
														OFFSET 0.000000 0.000000 0.100006
													}
												}
											}
										}
									}
									JOINT LeftHandRing1
									{
										OFFSET -0.086761 2.267456 8.921707
										CHANNELS 6 Xposition Yposition Zposition Zrotation Yrotation Xrotation
										JOINT LeftHandRing2
										{
											OFFSET 0.000000 0.000000 4.061096
											CHANNELS 6 Xposition Yposition Zposition Zrotation Yrotation Xrotation
											JOINT LeftHandRing3
											{
												OFFSET 0.000000 0.000000 3.654984
												CHANNELS 6 Xposition Yposition Zposition Zrotation Yrotation Xrotation
												JOINT LeftHandRing4
												{
													OFFSET 0.000000 0.000000 2.741241
													CHANNELS 6 Xposition Yposition Zposition Zrotation Yrotation Xrotation
													End Site
													{
														OFFSET 0.000000 0.000000 0.100006
													}
												}
											}
										}
									}
									JOINT LeftHandPinky1
									{
										OFFSET 0.173492 4.467224 7.976990
										CHANNELS 6 Xposition Yposition Zposition Zrotation Yrotation Xrotation
										JOINT LeftHandPinky2
										{
											OFFSET 0.000000 0.000000 3.350403
											CHANNELS 6 Xposition Yposition Zposition Zrotation Yrotation Xrotation
											JOINT LeftHandPinky3
											{
												OFFSET 0.000000 0.000000 2.842758
												CHANNELS 6 Xposition Yposition Zposition Zrotation Yrotation Xrotation
												JOINT LeftHandPinky4
												{
													OFFSET 0.000000 0.000000 2.639709
													CHANNELS 6 Xposition Yposition Zposition Zrotation Yrotation Xrotation
													End Site
													{
														OFFSET 0.000000 0.000000 0.100006
													}
												}
											}
										}
									}
									JOINT LeftForeArmEnd
									{
										OFFSET 0.000000 0.000000 0.000000
										CHANNELS 6 Xposition Yposition Zposition Zrotation Yrotation Xrotation
										End Site
										{
											OFFSET 0.000000 0.000000 0.100006
										}
									}
								}
								JOINT LeftArmEnd
								{
									OFFSET 0.000000 0.000000 0.000000
									CHANNELS 6 Xposition Yposition Zposition Zrotation Yrotation Xrotation
									End Site
									{
										OFFSET 0.000000 0.000000 0.100006
									}
								}
							}
						}
					}
				}
			}
		}
	}
	JOINT RightUpLeg
	{
		OFFSET -11.289948 0.000000 0.000000
		CHANNELS 6 Xposition Yposition Zposition Zrotation Yrotation Xrotation
		JOINT RightLeg
		{
			OFFSET 0.000000 0.000000 -38.200329
			CHANNELS 6 Xposition Yposition Zposition Zrotation Yrotation Xrotation
			JOINT RightFoot
			{
				OFFSET 0.000000 0.000000 -39.900856
				CHANNELS 6 Xposition Yposition Zposition Zrotation Yrotation Xrotation
				JOINT RightToeBase
				{
					OFFSET 0.000000 -15.261658 0.000001
					CHANNELS 6 Xposition Yposition Zposition Zrotation Yrotation Xrotation
					JOINT RightToeBaseEnd
					{
						OFFSET 0.000000 -7.370728 0.000001
						CHANNELS 6 Xposition Yposition Zposition Zrotation Yrotation Xrotation
						End Site
						{
							OFFSET 0.000000 0.000000 0.100000
						}
					}
				}
				JOINT RightLegEnd
				{
					OFFSET 0.000000 0.000000 0.000000
					CHANNELS 6 Xposition Yposition Zposition Zrotation Yrotation Xrotation
					End Site
					{
						OFFSET 0.000000 0.000000 0.100000
					}
				}
			}
			JOINT RightUpLegEnd
			{
				OFFSET 0.000000 0.000000 0.000000
				CHANNELS 6 Xposition Yposition Zposition Zrotation Yrotation Xrotation
				End Site
				{
					OFFSET 0.000000 0.000000 0.099998
				}
			}
		}
	}
	JOINT LeftUpLeg
	{
		OFFSET 11.315674 0.000000 0.000000
		CHANNELS 6 Xposition Yposition Zposition Zrotation Yrotation Xrotation
		JOINT LeftLeg
		{
			OFFSET 0.000000 0.000000 -38.200329
			CHANNELS 6 Xposition Yposition Zposition Zrotation Yrotation Xrotation
			JOINT LeftFoot
			{
				OFFSET 0.000000 0.000000 -39.900856
				CHANNELS 6 Xposition Yposition Zposition Zrotation Yrotation Xrotation
				JOINT LeftToeBase
				{
					OFFSET 0.000000 -15.261658 0.000001
					CHANNELS 6 Xposition Yposition Zposition Zrotation Yrotation Xrotation
					JOINT LeftToeBaseEnd
					{
						OFFSET 0.000000 -7.539978 0.000001
						CHANNELS 6 Xposition Yposition Zposition Zrotation Yrotation Xrotation
						End Site
						{
							OFFSET 0.000000 0.000000 0.100000
						}
					}
				}
				JOINT LeftLegEnd
				{
					OFFSET 0.000000 0.000000 0.000000
					CHANNELS 6 Xposition Yposition Zposition Zrotation Yrotation Xrotation
					End Site
					{
						OFFSET 0.000000 0.000000 0.100000
					}
				}
			}
			JOINT LeftUpLegEnd
			{
				OFFSET 0.000000 0.000000 0.000000
				CHANNELS 6 Xposition Yposition Zposition Zrotation Yrotation Xrotation
				End Site
				{
					OFFSET 0.000000 0.000000 0.099998
				}
			}
		}
	}
}
MOTION
Frames: 2
Frame Time: 0.016667
-1.108612 -7.257385 85.426186 -7.906288 4.050918 -22.193989 0.000007 2.080136 8.814243 -1.212190 -4.216353 9.153943 -0.000002 -0.000016 8.844133 0.388563 0.909827 3.369677 -0.000012 -0.000023 11.682272 -2.120472 0.280090 14.266418 -0.000010 0.000046 11.746702 -0.802687 0.173784 8.109735 -0.000016 0.000024 17.658249 4.583095 -2.270181 5.567123 0.000000 -0.000001 5.101544 7.015865 -1.236150 -3.580046 -0.000004 -0.000005 5.101525 -1.559992 2.317758 -22.351970 0.000000 -0.000000 11.655051 0.000000 -0.000000 -0.000001 -2.625399 -0.000016 11.175239 9.588406 -92.520916 -0.021682 -0.000015 0.000008 10.434677 -29.966178 -60.920185 18.163648 0.000008 -0.000046 29.628424 24.253319 -0.019681 63.828336 -0.000023 0.000031 22.857552 68.269025 -27.489676 -7.614879 -2.867310 -2.944244 3.959579 32.323853 -25.818632 39.469358 -0.000008 0.000031 3.350410 -31.627935 10.688988 -53.443908 0.000038 0.000015 3.756531 -20.999458 10.680942 -36.468473 -0.000007 0.000004 3.147377 -0.000001 0.000000 -0.000002 -0.086770 -2.345261 10.030882 106.814767 -109.304255 -105.211182 -0.000057 -0.000027 4.061096 -6.879904 -58.348544 13.178600 0.000000 0.000027 3.248848 -7.379897 -58.348558 13.178591 0.000015 -0.000016 2.639707 0.000003 0.000000 0.000000 0.104076 -0.006779 9.502926 -58.396246 -74.231807 63.896515 -0.000031 0.000013 4.568716 -2.066884 -57.350080 4.691508 -0.000015 0.000008 3.655014 -2.566863 -57.350107 4.691507 -0.000011 -0.000002 2.741258 0.000000 0.000000 0.000000 0.086735 2.267433 8.921730 130.003608 -97.241526 -118.998028 -0.000004 -0.000003 4.061098 2.305232 -58.989100 -5.839839 -0.000002 0.000008 3.654974 3.305238 -58.989079 -5.839854 0.000032 0.000001 2.741241 -0.000000 -0.000000 -0.000000 -0.173553 4.467299 7.976965 31.799728 -85.231595 -14.544130 -0.000008 0.000008 3.350418 6.908437 -55.920084 -16.697304 -0.000004 0.000000 2.842766 8.908457 -55.920087 -16.697294 -0.000015 0.000002 2.639709 -0.000000 0.000000 0.000000 0.000003 0.000015 -0.000010 -0.000004 -0.000001 -0.000001 0.000006 -0.000010 -0.000002 0.000001 -0.000001 0.000001 2.625387 0.000011 11.175212 -7.394124 92.396607 -0.171688 0.000008 -0.000027 10.813629 21.416506 61.276701 10.000415 -0.000037 0.000023 28.724709 -15.458376 -1.556154 89.447543 0.644371 0.328804 25.716263 -76.114433 44.633958 -18.827818 2.867313 -2.944275 3.959595 -31.546386 21.249584 45.709549 -0.000008 0.000015 3.350410 21.565868 -10.759955 -37.376595 -0.000046 0.000038 3.756523 14.230523 -9.012208 -25.467812 0.000004 -0.000003 3.100032 -0.000000 0.000001 -0.000004 0.086773 -2.345255 10.030907 -1.697721 45.150088 -7.807576 0.000010 0.000010 4.061111 -0.971884 32.251798 -5.087717 0.000008 -0.000023 3.248890 -1.471882 32.251784 -5.087732 0.000003 0.000000 2.639717 -0.000001 -0.000000 -0.000001 -0.104084 -0.006779 9.502968 5.109880 44.758937 -0.034210 -0.000006 -0.000023 4.568734 -0.031474 31.825775 -1.863984 -0.000004 0.000024 3.655000 -0.531462 31.825799 -1.863983 0.000008 -0.000010 2.741253 0.000003 0.000001 -0.000001 -0.086739 2.267467 8.921684 18.439716 48.248456 13.448913 -0.000011 -0.000025 4.061117 -0.224976 35.019124 2.456272 0.000006 -0.000020 3.654974 0.775019 35.019100 2.456275 0.000000 -0.000028 2.741252 -0.000003 0.000000 0.000001 0.173523 4.467228 7.977020 30.831361 46.153706 25.691859 0.000011 -0.000015 3.350414 0.513692 35.259134 7.898642 0.000000 0.000015 2.842754 2.513655 35.259127 7.898622 -0.000044 -0.000018 2.639709 0.000003 -0.000000 -0.000000 0.000002 -0.000029 -0.000014 0.000002 0.000003 -0.000001 -0.000001 -0.000007 0.000005 0.000000 -0.000002 0.000002 -11.289966 0.000057 0.000011 -20.996761 -0.424520 22.890358 -0.000021 -0.000072 -38.200310 -0.659441 0.202843 18.111416 -0.000030 -0.000032 -39.900856 -24.463813 3.654967 3.596360 0.000014 -15.261668 0.000005 1.022226 0.077038 -14.203769 0.000009 -7.370723 0.000001 -0.000001 -0.000000 -0.000001 0.000011 -0.000007 0.000000 0.000001 -0.000001 -0.000002 -0.000021 -0.000009 0.000001 0.000001 -0.000001 -0.000000 11.315627 0.000056 0.000010 -0.669008 -16.744557 0.749073 0.000034 -0.000021 -38.200314 1.660955 -0.625410 20.627757 -0.000032 -0.000013 -39.900856 14.291122 8.584860 28.686269 -0.000059 -15.261649 0.000003 -0.655404 -2.648234 -19.658705 -0.000009 -7.539976 0.000001 -0.000000 0.000000 0.000000 -0.000042 0.000001 0.000001 -0.000000 0.000000 -0.000001 0.000001 -0.000000 0.000000 0.000000 0.000001 0.000000 
-0.950012 -7.580200 85.396561 -8.173076 4.047071 -21.886341 -0.000005 2.080050 8.814249 -1.248314 -3.919979 9.156973 0.000014 0.000012 8.844132 0.400194 1.377781 3.550868 0.000007 -0.000072 11.682289 -2.995334 0.073035 14.110713 0.000012 0.000014 11.746712 -1.293860 -0.234812 8.690535 -0.000011 0.000017 17.658253 4.847658 -2.534729 5.592474 0.000010 -0.000014 5.101540 7.352764 -1.283682 -3.439119 -0.000012 -0.000001 5.101526 -1.519548 2.470009 -22.955158 -0.000000 -0.000002 11.655094 0.000000 0.000000 -0.000000 -2.625396 -0.000025 11.175211 8.421969 -91.931935 -0.019469 -0.000015 0.000017 10.434687 -18.835199 -64.829765 5.608821 0.000015 -0.000046 29.628424 24.669651 -0.047529 65.896600 -0.000008 0.000031 22.857540 72.473799 -29.652286 -7.461276 -2.867326 -2.944214 3.959579 32.486873 -26.400049 38.690604 -0.000015 0.000000 3.350410 -32.871184 10.485706 -55.441803 -0.000015 0.000000 3.756477 -21.866960 10.798284 -37.858881 0.000011 0.000009 3.147357 -0.000001 0.000002 -0.000001 -0.086771 -2.345277 10.030919 92.660867 -108.505478 -89.331115 -0.000019 -0.000023 4.061089 -8.561097 -61.682277 15.118697 0.000008 0.000006 3.248848 -9.061069 -61.682277 15.118685 -0.000004 -0.000003 2.639726 0.000000 -0.000002 0.000000 0.104084 -0.006790 9.502953 -74.944012 -76.057729 82.066014 -0.000006 0.000015 4.568724 -2.627311 -60.638249 5.345093 0.000035 -0.000006 3.654966 -3.127309 -60.638256 5.345096 0.000043 0.000011 2.741255 -0.000001 -0.000001 -0.000000 0.086763 2.267433 8.921724 90.614419 -95.609207 -77.951262 -0.000011 0.000007 4.061100 2.987956 -62.065792 -6.623773 0.000013 -0.000020 3.654978 3.987972 -62.065792 -6.623769 -0.000012 -0.000001 2.741257 0.000000 -0.000001 -0.000000 -0.173514 4.467292 7.976986 103.339902 -87.672554 -83.764333 0.000000 -0.000010 3.350403 8.446969 -58.543600 -18.526456 -0.000019 0.000023 2.842758 10.446972 -58.543587 -18.526465 0.000039 0.000004 2.639732 -0.000001 0.000000 -0.000000 0.000004 0.000030 0.000025 0.000005 0.000002 0.000000 -0.000006 -0.000001 0.000003 0.000000 -0.000002 0.000000 2.625410 -0.000000 11.175207 -6.367698 92.419515 -0.202355 0.000046 0.000023 10.813636 15.153640 68.882956 1.544206 -0.000019 0.000006 28.724741 -17.529996 -1.631563 88.277955 0.644405 0.328850 25.716171 -80.051060 41.382033 -19.269837 2.867348 -2.944275 3.959579 -31.612175 21.998064 44.665889 -0.000015 0.000031 3.350410 23.237606 -10.940837 -40.050641 -0.000004 -0.000061 3.756523 15.331710 -9.378578 -27.282161 0.000012 -0.000001 3.100018 0.000001 0.000001 -0.000000 0.086777 -2.345275 10.030876 -0.918183 49.814479 -9.250906 0.000002 0.000013 4.061115 -1.362614 35.658331 -5.787005 0.000005 0.000000 3.248867 -1.862856 35.656767 -5.787171 -0.000011 0.000000 2.639717 -0.000000 -0.000000 -0.000001 -0.104095 -0.006763 9.502952 6.349359 49.060467 -0.258786 -0.000008 -0.000022 4.568714 -0.160020 34.930294 -2.097555 0.000009 -0.000023 3.654976 -0.660027 34.930288 -2.097571 0.000025 0.000008 2.741245 -0.000001 -0.000001 0.000000 -0.086754 2.267481 8.921707 20.662972 51.883264 15.497971 0.000004 -0.000005 4.061096 -0.071515 37.754769 2.714864 -0.000004 -0.000017 3.654974 0.928459 37.754738 2.714843 -0.000011 0.000011 2.741245 -0.000001 -0.000000 -0.000001 0.173508 4.467239 7.977005 33.126469 48.710034 29.175293 0.000008 -0.000029 3.350418 0.919390 37.514582 8.582421 0.000006 -0.000010 2.842735 2.919386 37.514613 8.582427 0.000003 -0.000003 2.639694 -0.000000 -0.000002 0.000002 0.000005 0.000013 -0.000016 -0.000002 0.000001 0.000002 -0.000004 0.000014 -0.000003 -0.000001 -0.000001 0.000001 -11.289993 0.000008 -0.000001 -20.730589 -0.412648 22.630457 -0.000007 -0.000033 -38.200314 -0.654989 0.203457 18.314966 0.000008 -0.000033 -39.900856 -24.386709 3.386821 3.500713 -0.000032 -15.261767 0.000011 1.083562 0.037311 -14.115568 0.000007 -7.370697 0.000001 0.000004 0.000000 -0.000000 0.000007 -0.000009 0.000000 0.000001 -0.000001 -0.000000 -0.000019 0.000011 -0.000001 -0.000002 0.000001 -0.000001 11.315636 -0.000014 -0.000002 -0.632922 -16.808003 0.039832 -0.000017 0.000052 -38.200344 1.615388 -0.650463 21.927393 0.000004 0.000004 -39.900848 13.427345 8.754131 28.007949 0.000017 -15.261765 0.000019 -0.650681 -2.552862 -19.756768 -0.000010 -7.539914 0.000002 -0.000000 -0.000000 -0.000000 0.000002 -0.000001 0.000001 0.000000 0.000000 0.000000 -0.000001 -0.000000 0.000004 -0.000000 0.000001 0.000000 
